<?xml version="1.0" encoding="UTF-8" standalone="no"?>
<svg width="557px" height="557px" viewBox="0 0 557 557" version="1.1" xmlns="http://www.w3.org/2000/svg" xmlns:xlink="http://www.w3.org/1999/xlink">
    <!-- Generator: Sketch 39.1 (31720) - http://www.bohemiancoding.com/sketch -->
    <title>Slice 1</title>
    <desc>Created with Sketch.</desc>
    <defs></defs>
    <g id="Page-1" stroke="none" stroke-width="1" fill="none" fill-rule="evenodd">
        <g id="Dice-6" transform="translate(3.000000, 3.000000)" stroke="#000000" stroke-width="7" fill="#FFFFFF">
            <rect id="Rectangle-path" x="0.5" y="0.5" width="550" height="550" rx="70"></rect>
        </g>
        <g id="Group" transform="translate(277.500000, 279.000000) rotate(-266.000000) translate(-277.500000, -279.000000) translate(57.000000, 60.000000)" stroke="#740000" stroke-width="5" fill="#FF724C">
            <circle id="Oval" transform="translate(383.115234, 380.115234) rotate(90.000000) translate(-383.115234, -380.115234) " cx="383.115234" cy="380.115234" r="57.1152344"></circle>
            <ellipse id="Oval-Copy-3" transform="translate(383.115234, 57.115234) rotate(90.000000) translate(-383.115234, -57.115234) " cx="383.115234" cy="57.1152344" rx="57.1152344" ry="57.1152344"></ellipse>
            <circle id="Oval-Copy" transform="translate(57.115234, 380.115234) rotate(90.000000) translate(-57.115234, -380.115234) " cx="57.1152344" cy="380.115234" r="57.1152344"></circle>
            <ellipse id="Oval-Copy-4" transform="translate(57.115234, 57.115234) rotate(90.000000) translate(-57.115234, -57.115234) " cx="57.1152344" cy="57.1152344" rx="57.1152344" ry="57.1152344"></ellipse>
            <circle id="Oval-Copy-2" transform="translate(220.115234, 380.115234) rotate(90.000000) translate(-220.115234, -380.115234) " cx="220.115234" cy="380.115234" r="57.1152344"></circle>
            <ellipse id="Oval-Copy-5" transform="translate(220.115234, 57.115234) rotate(90.000000) translate(-220.115234, -57.115234) " cx="220.115234" cy="57.1152344" rx="57.1152344" ry="57.1152344"></ellipse>
        </g>
    </g>
</svg>